<svg width="51" height="44" viewBox="0 0 58 50" fill="none" xmlns="http://www.w3.org/2000/svg">
<path d="M44.4078 32.3224L50.0194 27.3719C52.5775 25.1151 53.9438 21.7992 53.7182 18.3954L52.5141 0.231466" stroke="#F88224" stroke-width="7"/>
<mask id="path-2-outside-1_41_5136" maskUnits="userSpaceOnUse" x="-0.782461" y="23.0347" width="51.5441" height="28.2524" fill="black">
<rect fill="white" x="-0.782461" y="23.0347" width="51.5441" height="28.2524"/>
<path d="M36.4899 26.8777C41.583 26.5401 45.9855 30.3952 46.3231 35.4884C46.6607 40.5815 42.8056 44.984 37.7125 45.3216L32.5003 45.6671C30.2858 45.8139 28.3715 44.1377 28.2247 41.9232L28.1715 41.1207C28.0541 39.3494 26.523 38.0086 24.7516 38.126C22.9803 38.2434 21.6395 39.7746 21.7569 41.5459L21.8101 42.3484C21.9569 44.5629 20.2807 46.4771 18.0661 46.6239L12.854 46.9694C7.76081 47.307 3.35831 43.4519 3.0207 38.3588C2.68309 33.2656 6.5382 28.8632 11.6313 28.5255L36.4899 26.8777Z"/>
</mask>
<path d="M36.4899 26.8777C41.583 26.5401 45.9855 30.3952 46.3231 35.4884C46.6607 40.5815 42.8056 44.984 37.7125 45.3216L32.5003 45.6671C30.2858 45.8139 28.3715 44.1377 28.2247 41.9232L28.1715 41.1207C28.0541 39.3494 26.523 38.0086 24.7516 38.126C22.9803 38.2434 21.6395 39.7746 21.7569 41.5459L21.8101 42.3484C21.9569 44.5629 20.2807 46.4771 18.0661 46.6239L12.854 46.9694C7.76081 47.307 3.35831 43.4519 3.0207 38.3588C2.68309 33.2656 6.5382 28.8632 11.6313 28.5255L36.4899 26.8777Z" fill="#44D0F8"/>
<path d="M32.5003 45.6671L32.6987 48.6606L32.5003 45.6671ZM37.7125 45.3216L37.5141 42.3282L32.3019 42.6737L32.5003 45.6671L32.6987 48.6606L37.9109 48.3151L37.7125 45.3216ZM28.2247 41.9232L31.2182 41.7247L31.165 40.9223L28.1715 41.1207L25.1781 41.3192L25.2313 42.1216L28.2247 41.9232ZM21.7569 41.5459L18.7635 41.7444L18.8167 42.5468L21.8101 42.3484L24.8035 42.15L24.7503 41.3475L21.7569 41.5459ZM18.0661 46.6239L17.8677 43.6305L12.6555 43.976L12.854 46.9694L13.0524 49.9629L18.2646 49.6174L18.0661 46.6239ZM11.6313 28.5255L11.8298 31.519L36.6883 29.8712L36.4899 26.8777L36.2914 23.8843L11.4329 25.5321L11.6313 28.5255ZM3.0207 38.3588L6.01413 38.1604C5.78611 34.7204 8.38986 31.747 11.8298 31.519L11.6313 28.5255L11.4329 25.5321C4.68655 25.9793 -0.419933 31.8108 0.0272687 38.5572L3.0207 38.3588ZM12.854 46.9694L12.6555 43.976C9.21561 44.204 6.24215 41.6003 6.01413 38.1604L3.0207 38.3588L0.0272687 38.5572C0.47447 45.3036 6.30601 50.4101 13.0524 49.9629L12.854 46.9694ZM21.8101 42.3484L18.8167 42.5468C18.8539 43.1081 18.429 43.5933 17.8677 43.6305L18.0661 46.6239L18.2646 49.6174C22.1323 49.361 25.0599 46.0177 24.8035 42.15L21.8101 42.3484ZM24.7516 38.126L24.5532 35.1326C21.1286 35.3596 18.5365 38.3198 18.7635 41.7444L21.7569 41.5459L24.7503 41.3475C24.7425 41.2294 24.8319 41.1273 24.95 41.1194L24.7516 38.126ZM28.1715 41.1207L31.165 40.9223C30.938 37.4977 27.9778 34.9056 24.5532 35.1326L24.7516 38.126L24.95 41.1194C25.0682 41.1116 25.1703 41.201 25.1781 41.3192L28.1715 41.1207ZM32.5003 45.6671L32.3019 42.6737C31.7406 42.7109 31.2554 42.286 31.2182 41.7247L28.2247 41.9232L25.2313 42.1216C25.4877 45.9893 28.831 48.9169 32.6987 48.6606L32.5003 45.6671ZM46.3231 35.4884L43.3297 35.6868C43.5577 39.1267 40.954 42.1002 37.5141 42.3282L37.7125 45.3216L37.9109 48.3151C44.6573 47.8678 49.7638 42.0363 49.3166 35.2899L46.3231 35.4884ZM46.3231 35.4884L49.3166 35.2899C48.8694 28.5436 43.0378 23.4371 36.2914 23.8843L36.4899 26.8777L36.6883 29.8712C40.1282 29.6431 43.1017 32.2469 43.3297 35.6868L46.3231 35.4884Z" fill="#1C4BD9" mask="url(#path-2-outside-1_41_5136)"/>
<mask id="mask0_41_5136" style="mask-type:alpha" maskUnits="userSpaceOnUse" x="3" y="26" width="44" height="21">
<path d="M36.4899 26.8777C41.583 26.5401 45.9855 30.3952 46.3231 35.4884C46.6607 40.5815 42.8056 44.984 37.7125 45.3216L32.5003 45.6671C30.2858 45.8139 28.3715 44.1377 28.2247 41.9232L28.1715 41.1207C28.0541 39.3494 26.523 38.0086 24.7516 38.126C22.9803 38.2434 21.6395 39.7746 21.7569 41.5459L21.8101 42.3484C21.9569 44.5629 20.2807 46.4771 18.0661 46.6239L12.854 46.9694C7.76081 47.307 3.35831 43.4519 3.0207 38.3588C2.68309 33.2656 6.5382 28.8632 11.6313 28.5255L36.4899 26.8777Z" fill="#44D0F8"/>
</mask>
<g mask="url(#mask0_41_5136)">
<rect x="21.0089" y="24.748" width="4.25466" height="26.9283" transform="rotate(30.0426 21.0089 24.748)" fill="#83F0FF"/>
<rect x="15.5189" y="24.6001" width="2.11708" height="25.4935" transform="rotate(30.0426 15.5189 24.6001)" fill="#83F0FF"/>
</g>
</svg>
