<svg width="88" height="67" viewBox="0 0 88 67" fill="none" xmlns="http://www.w3.org/2000/svg">
<path d="M16.51 41.9159C11.8895 38.1529 19.35 29.5974 23.6577 25.7901L27.3026 22.4036L50.9215 27.1559L57.7075 47.314L43.3863 53.8288L33.9562 38.0239C29.3106 40.4438 21.1305 45.6789 16.51 41.9159Z" fill="#833A1B"/>
<mask id="mask0_61_3469" style="mask-type:alpha" maskUnits="userSpaceOnUse" x="15" y="22" width="43" height="32">
<path d="M16.51 41.9159C11.8895 38.1529 19.35 29.5974 23.6577 25.7901L27.3026 22.4036L50.9215 27.1559L57.7075 47.314L43.3863 53.8288L33.9562 38.0239C29.3106 40.4438 21.1305 45.6789 16.51 41.9159Z" fill="#833A1B"/>
</mask>
<g mask="url(#mask0_61_3469)">
<path d="M19.4221 35.346C19.3137 33.0112 16.9427 32.3414 15.7708 32.2983L11.9968 39.2007L16.9781 45.6963L20.8942 48.1466C23.3036 47.5472 27.79 45.4865 26.4599 42.0385C24.7973 37.7286 22.6117 41.0474 19.3607 40.321C16.1097 39.5946 19.5577 38.2644 19.4221 35.346Z" fill="black"/>
</g>
<ellipse cx="28.6344" cy="26.8225" rx="1.95988" ry="1.30659" transform="rotate(-11.0489 28.6344 26.8225)" fill="#1B1C26"/>
<path d="M25.7307 14.8205C22.8691 18.6972 23.3072 23.5124 23.884 25.4355L26.6144 25.8213C27.273 21.1111 28.5924 10.9439 25.7307 14.8205Z" fill="#833A1B"/>
<path d="M22.4429 19.2735L28.226 17.0961L32.9587 12.8997L41.2117 16.4975L47.3994 20.5926L56.229 28.0792L66.4372 38.2492L69.3814 46.7717L58.6373 48.4407L47.9127 33.9509L41.1072 29.9516L36.0645 28.431L33.0104 25.6481L30.6214 24.5892L26.0926 24.5719L22.8432 21.5948L22.4429 19.2735Z" fill="black"/>
<path d="M34.95 17.0788C32.0883 20.9554 32.5265 25.7707 33.1033 27.6937L36.6869 29.2819C37.3455 24.5717 37.8116 13.2021 34.95 17.0788Z" fill="#833A1B"/>
</svg>
