<svg width="86" height="27" viewBox="0 0 86 27" fill="none" xmlns="http://www.w3.org/2000/svg">
<path d="M8.2251 5.1361C7.16246 4.89996 5.80464 4.95899 4.21067 5.25417C2.61671 5.54935 1.52455 5.66742 0.904677 5.66742C1.14082 3.89635 1.28841 2.62709 1.37696 1.85962C2.97092 1.62348 3.79742 1.53493 3.88598 1.53493C6.54258 1.35782 8.28413 1.29878 9.08111 1.35782C10.4094 1.41686 12.0034 1.91866 13.1841 2.1548C13.922 2.33191 14.1582 2.80419 13.922 3.63069C13.4498 5.22465 13.4498 5.37224 12.7708 6.70054C12.3576 7.49753 11.8853 8.02885 11.2359 8.6192C10.9112 8.91438 10.8227 8.91438 10.6456 9.2686C10.4094 9.68184 10.9112 9.97702 11.2064 10.2132C12.1214 10.8035 12.5642 11.63 13.3317 12.368C13.9811 12.9878 15.457 14.4047 14.0106 15.1722C13.6859 15.3493 12.5052 16.1758 12.1805 16.3824C11.5016 16.8547 10.8522 16.2053 10.3504 15.9691C10.0257 15.7625 10.0847 15.7035 9.84858 15.4083C9.58292 15.0246 9.31726 14.9065 8.90401 14.3752C8.31365 13.5487 7.42812 12.7222 6.33596 12.7517C4.86007 12.7812 2.94141 14.2866 1.81973 15.3493C1.25889 15.8511 0.87516 15.733 0.698053 15.0246C0.343839 13.4896 0.107696 12.5156 0.0486608 12.1613C-0.217 10.6264 0.639017 9.71136 1.79021 9.35715C2.82334 9.06197 3.76791 8.6192 4.59441 8.02885C5.45042 7.43849 6.42451 6.67103 7.51667 5.69694C7.54619 5.69694 7.78233 5.51983 8.2251 5.1361ZM21.5672 1.35782C21.5672 0.53132 22.187 0 23.0135 0L25.1093 0.206624L25.4045 0.413249C25.6406 0.590355 26.231 1.26927 26.231 1.74155V6.13971C26.1719 6.13971 26.0834 13.4306 26.0539 13.7848C26.0243 15.7625 25.3454 16.9137 23.3677 16.7956H22.984L22.3346 16.6185C21.9214 16.5005 21.7443 16.2643 21.7443 15.8511V10.9511C21.2129 11.0397 20.6226 11.1282 20.0027 11.1873C18.8515 11.2758 18.1726 11.0101 17.966 10.3903C17.5232 9.12101 17.8184 7.88126 18.881 6.67103C19.1172 6.34633 20.3864 6.40537 20.8587 6.31681C20.8882 6.31681 21.1539 6.34633 21.6262 6.40537C21.5672 4.8114 21.5672 3.12889 21.5672 1.35782ZM7.22149 17.1794C7.22149 17.2679 7.42812 18.242 7.42812 18.3601C7.42812 18.7438 7.66426 20.0131 7.75281 20.8986C7.81185 21.2823 7.87088 21.6366 7.92992 21.9317L11.5606 21.7251C18.3792 21.3119 17.5232 21.4004 21.9509 20.9577C22.4232 20.8986 22.8364 20.8986 23.1316 20.8986C23.781 20.8986 24.0466 22.286 24.0466 23.5552C24.0466 24.2046 23.8695 24.913 23.5153 25.6215C23.3973 25.7986 23.1316 25.9462 22.7183 26.0052C22.4527 26.0347 14.6305 26.507 14.3648 26.566C14.2467 26.566 14.1582 26.5956 14.0401 26.5956C13.066 26.5956 8.2251 26.6841 7.31004 26.7431C6.98535 26.7431 5.77512 26.8317 5.45042 26.8317C4.53537 26.8317 3.76791 26.6251 3.41369 26.0642C3.29562 25.8871 3.2661 25.71 3.2661 25.5624C3.14803 24.3227 2.97092 19.8065 2.91189 18.5962L2.88237 18.1535C2.88237 17.8583 2.88237 17.5926 2.88237 17.327L2.85285 16.9137C2.94141 16.9137 3.76791 16.6776 3.85646 16.6776C4.06308 16.6185 4.53537 16.6185 5.27331 16.6185C6.36547 16.6185 7.22149 16.53 7.22149 17.1794Z" fill="#EF6F25"/>
<path d="M54.5964 1.71203C54.5964 1.8301 55.3344 2.03673 55.4524 2.09577C55.5705 2.1548 55.6295 2.21384 55.6591 2.27287C55.8066 2.80419 55.8657 3.45358 55.8362 4.19153C55.6591 5.90356 55.0687 12.8107 54.8621 15.4378C54.5374 18.7438 54.5079 18.5372 54.4193 20.6625C54.3603 21.8137 54.3012 22.7582 54.1832 23.7914C54.1241 24.1751 53.829 24.7655 53.3567 25.5919C53.2386 25.7691 52.9729 25.8871 52.5597 25.8871C52.4711 25.8871 51.6151 25.9166 49.9621 25.9166C49.3718 25.9166 48.988 25.5329 48.9585 25.0016L48.7519 21.9022C48.7519 21.7251 48.6338 20.6625 48.6633 20.4854C48.7224 19.5998 48.8404 18.7438 49.0176 17.9173C49.1947 16.7956 48.9585 16.4414 47.8368 16.6776C46.2134 17.0023 44.8851 15.733 45.1802 14.1095C45.4459 12.6041 46.479 11.63 48.132 11.4824C48.87 11.4529 49.6079 10.8626 49.6669 10.1246C49.726 9.09149 49.9916 5.49031 50.0802 4.39815C50.1097 4.10298 50.1983 3.57166 50.3459 2.86323C50.523 2.21384 50.9362 1.91866 51.5856 1.91866C52.3826 1.94818 53.1205 1.94818 53.7994 1.94818C53.7994 1.94818 54.0651 1.88914 54.5964 1.71203ZM33.0189 9.12101C33.2846 9.12101 34.1111 9.00293 34.4062 9.00293C36.2954 9.00293 39.867 8.70776 42.0218 8.67824C43.7634 8.6192 43.97 8.79631 43.7929 10.6264C43.6748 11.6005 43.5272 12.427 43.3206 13.1354C43.173 13.4011 42.6417 13.6372 42.3465 13.8143C42.7598 15.2902 43.8224 17.2384 43.6453 19.2161C43.4682 21.4004 42.5532 23.0534 40.9592 24.1751C40.3098 24.6179 39.5128 24.795 38.5092 24.6769C37.2695 24.5293 35.3213 24.1751 32.7237 23.6438C31.0707 23.2896 30.1557 22.2564 29.949 20.4854C29.6539 18.183 30.2442 16.3824 31.7496 15.0246C31.7496 14.9951 31.9562 14.7589 32.3695 14.3161C31.543 14.1981 30.5099 13.9914 29.7424 13.8734C29.2111 13.7848 28.9454 13.5487 28.9159 13.1649C28.7978 12.1023 28.6503 10.8035 28.4731 9.29811C29.3882 9.20956 30.3623 8.97342 31.3659 8.97342C31.8972 8.97342 32.5466 9.12101 33.0189 9.12101ZM36.7381 20.9577C38.3321 20.9281 39.3652 20.3083 39.808 19.098C40.0441 18.3306 39.6014 16.9727 38.9815 16.9432C37.7122 16.7661 36.7677 16.7366 36.1183 16.7956C34.7014 16.8842 33.9044 17.7107 33.993 19.2456C33.993 19.7769 34.1406 20.1016 34.3767 20.2197C34.6129 20.3083 35.3803 20.5444 36.7381 20.9577ZM39.6309 6.93669C36.7381 8.08788 33.8454 7.76319 31.8382 6.43488C31.484 6.16922 31.4544 5.40176 31.3659 4.89996C31.2478 4.48671 31.1593 4.19153 31.1593 4.04394C30.9526 3.60117 31.1002 3.42407 31.602 3.42407C31.9267 3.39455 33.255 3.04033 33.5797 3.01082C35.764 2.77467 37.358 2.62709 38.3616 2.62709C38.9815 2.62709 39.07 3.06985 39.1881 3.63069C39.2472 3.86683 39.2767 4.01442 39.2767 4.07346C39.3947 4.69333 39.4538 5.22465 39.5128 5.99212C39.5423 6.40537 39.5718 6.73006 39.6309 6.93669Z" fill="#EF6F25"/>
<path d="M73.4866 16.7366C71.8927 16.6776 71.4204 15.5854 71.6565 13.7848C71.7451 12.6041 71.9517 11.6595 72.8077 11.3644C72.9258 11.3348 73.6047 11.2168 74.8445 11.0397V5.37224C74.8445 4.69333 74.7559 2.56805 74.7264 1.91866C74.7264 0.796981 74.933 0.177106 75.9957 0.147588C77.324 0.088553 78.4456 0.354214 79.3902 0.974089C79.951 1.3283 80.2167 1.91866 80.1577 2.71564C80.0396 3.77828 79.951 5.6379 79.892 8.29451C79.833 9.88847 79.5083 18.8914 79.4492 20.6034C79.4492 20.9577 79.2721 22.3745 78.977 24.854C78.8884 25.4444 78.6523 25.9462 78.0029 25.8871C77.7962 25.8871 77.0583 26.0347 76.8812 26.0347C74.6083 26.1528 74.1065 24.913 74.077 22.5811C74.077 21.7546 74.1065 20.0426 74.2246 17.5041C74.2246 16.9432 74.136 16.6185 73.6047 16.7366H73.4866ZM85.2643 5.6379C84.5558 15.9101 84.7034 14.4932 83.8769 24.0865C83.8179 24.9721 83.4637 25.71 82.8143 26.3004C82.1649 26.8612 81.545 26.9793 80.8956 26.6546C80.6595 26.566 80.5119 26.2709 80.4233 25.7691C80.2462 24.7654 80.1577 23.7028 80.1577 22.6402C80.1577 21.1348 80.3348 20.7215 80.3053 18.8619C80.2462 16.0872 80.3053 16.1462 80.5119 12.8107C80.689 9.56377 80.8366 8.91438 80.689 6.08067C80.5119 3.33551 80.5119 3.57166 81.2498 0.856016C81.2794 0.737945 81.4565 0.649392 81.8107 0.590355C82.8733 0.472285 83.5522 0.442767 83.9064 0.472285C84.2016 0.53132 84.5558 1.00361 84.6444 1.29878C84.7034 1.74155 84.91 3.18793 85.2643 5.6379ZM57.6061 10.3017C57.2814 10.3017 57.2519 10.0951 57.2814 9.74088C57.429 6.90717 57.5765 5.34273 57.7241 5.10658C57.9012 4.75237 58.1669 4.51623 58.5506 4.45719C60.735 3.98491 62.3879 3.68973 63.5687 3.51262C65.3102 3.21744 66.9337 3.21744 68.4686 3.45358C69.5608 3.45358 69.915 3.86683 70.2102 4.8114C71.3318 8.38306 71.1547 11.8366 70.6825 16.2348C70.6234 16.6185 70.5349 17.5041 70.4758 18.9209C70.3873 20.3378 70.2692 21.4004 70.1216 22.1679C69.915 22.9649 69.6789 23.5257 69.4132 23.8209C68.8819 24.3817 65.9596 24.3817 64.8084 24.3227C63.7458 24.2636 64.1885 23.1715 64.3656 22.4631C64.9265 18.6257 64.8379 16.3529 64.6903 11.3348C64.6608 10.9216 64.6018 10.6264 64.5427 10.4493C64.2771 9.97702 63.7163 9.85895 62.8602 10.0656C61.8861 10.3312 60.1446 10.4198 57.6061 10.3017Z" fill="#EF6F25"/>
</svg>
