<svg width="60" height="60" viewBox="0 0 60 60" fill="none" xmlns="http://www.w3.org/2000/svg">
<circle cx="30" cy="30" r="30" fill="url(#paint0_linear_42_36581)"/>
<circle cx="30" cy="30" r="27" fill="#84D2E2" fill-opacity="0.8"/>
<path d="M26.8338 34.6448C26.7246 34.2217 26.5041 33.8355 26.1951 33.5265C25.8861 33.2175 25.5 32.997 25.0768 32.8879L17.576 30.9536C17.448 30.9173 17.3354 30.8402 17.2552 30.7341C17.175 30.628 17.1316 30.4986 17.1316 30.3656C17.1316 30.2325 17.175 30.1031 17.2552 29.997C17.3354 29.8909 17.448 29.8138 17.576 29.7775L25.0768 27.842C25.4998 27.733 25.8859 27.5126 26.1948 27.2039C26.5038 26.8951 26.7244 26.5092 26.8338 26.0863L28.768 18.5855C28.8039 18.457 28.8809 18.3438 28.9872 18.2632C29.0935 18.1826 29.2233 18.1389 29.3567 18.1389C29.4901 18.1389 29.6198 18.1826 29.7261 18.2632C29.8324 18.3438 29.9094 18.457 29.9454 18.5855L31.8784 26.0863C31.9875 26.5095 32.2081 26.8956 32.517 27.2046C32.826 27.5136 33.2122 27.7341 33.6353 27.8433L41.1361 29.7762C41.2651 29.8118 41.3789 29.8887 41.4599 29.9952C41.541 30.1016 41.5849 30.2318 41.5849 30.3656C41.5849 30.4994 41.541 30.6295 41.4599 30.7359C41.3789 30.8424 41.2651 30.9193 41.1361 30.9549L33.6353 32.8879C33.2122 32.997 32.826 33.2175 32.517 33.5265C32.2081 33.8355 31.9875 34.2217 31.8784 34.6448L29.9442 42.1456C29.9082 42.2741 29.8312 42.3873 29.7249 42.4679C29.6186 42.5486 29.4889 42.5922 29.3555 42.5922C29.222 42.5922 29.0923 42.5486 28.986 42.4679C28.8797 42.3873 28.8027 42.2741 28.7668 42.1456L26.8338 34.6448Z" fill="white" stroke="white" stroke-width="2.66577" stroke-linecap="round" stroke-linejoin="round"/>
<path d="M39.1371 19.3618V24.2524" stroke="white" stroke-width="2.66577" stroke-linecap="round" stroke-linejoin="round"/>
<path d="M41.5824 21.8071H36.6918" stroke="white" stroke-width="2.66577" stroke-linecap="round" stroke-linejoin="round"/>
<path d="M19.575 36.4787V38.924" stroke="white" stroke-width="2.66577" stroke-linecap="round" stroke-linejoin="round"/>
<path d="M20.7976 37.7014H18.3524" stroke="white" stroke-width="2.66577" stroke-linecap="round" stroke-linejoin="round"/>
<defs>
<linearGradient id="paint0_linear_42_36581" x1="30" y1="0" x2="30" y2="60" gradientUnits="userSpaceOnUse">
<stop stop-color="#84D2E2"/>
<stop offset="1" stop-color="#1CB3CB"/>
</linearGradient>
</defs>
</svg>
