<svg width="71" height="54" viewBox="0 0 71 54" fill="none" xmlns="http://www.w3.org/2000/svg">
<path d="M3.53081 25.2469L6.42886 39.8815C7.30216 40.8426 10.1326 43.3077 14.4682 45.4795C19.8877 48.1941 24.9944 49.0104 32.588 47.7596C40.1817 46.5087 47.7519 49.2591 52.9904 47.3238C58.2289 45.3885 59.7174 36.0762 60.5693 28.8186C61.4213 21.5611 58.9098 19.9273 54.3435 17.6571C49.7772 15.3869 37.1126 13.6707 27.5959 11.5334C18.0792 9.39611 16.9379 10.754 9.36887 15.7057C3.31365 19.6669 2.95382 23.7171 3.53081 25.2469Z" fill="url(#paint0_linear_41_5153)"/>
<path d="M7.19909 22.5736C7.46056 22.6154 8.10666 22.829 8.69155 23.3432C10.0586 24.5449 11.6558 25.7045 12.5109 26.2283C13.9691 27.1215 15.0671 27.6908 15.9739 28.2767C17.1187 29.0164 17.9607 29.9023 18.5375 30.5409C19.0011 31.0541 19.5934 31.6945 20.0354 32.3637C21.1471 34.0469 21.1799 37.6069 21.5644 38.7585C22.1572 40.5336 23.0865 41.4597 23.6871 42.3443C24.2102 43.733 24.6717 45.1414 24.9979 45.7619C25.0827 45.8946 25.1735 46.005 25.2617 46.1523" stroke="url(#paint1_linear_41_5153)" stroke-width="1.26202" stroke-linecap="round"/>
<path d="M24.6435 29.1015C25.4889 29.2366 28.3097 29.5589 29.5865 29.6828C30.8022 29.8007 32.9574 29.8409 35.2835 29.842C36.3159 29.8426 39.3183 29.6467 41.6427 29.4128C42.351 29.3415 43.1566 28.3934 45.0621 26.8172C47.3298 24.9415 48.4228 24.083 49.3072 23.4799C49.9448 23.045 50.9442 22.7366 52.2887 22.516C53.7554 22.2752 54.3698 22.23 56.2698 21.8186C56.6829 21.7208 56.8091 21.6624 56.979 21.5651C57.1488 21.4678 57.3586 21.3334 57.6181 21.1356" stroke="url(#paint2_linear_41_5153)" stroke-width="1.26202" stroke-linecap="round"/>
<ellipse cx="27.0366" cy="36.082" rx="1.35531" ry="1.80708" transform="rotate(9.08126 27.0366 36.082)" fill="url(#paint3_linear_41_5153)"/>
<ellipse cx="7.48953" cy="29.4864" rx="1.97514" ry="2.33228" transform="rotate(-12.6053 7.48953 29.4864)" fill="url(#paint4_linear_41_5153)"/>
<ellipse cx="27.4717" cy="41.9466" rx="0.903539" ry="1.20472" transform="rotate(9.08126 27.4717 41.9466)" fill="url(#paint5_linear_41_5153)"/>
<ellipse cx="32.081" cy="37.473" rx="0.781191" ry="1.30784" transform="rotate(26.386 32.081 37.473)" fill="url(#paint6_linear_41_5153)"/>
<path d="M62.7357 10.6396L61.3317 17.3398L58.9282 11.0075L52.2281 9.60361L59.007 7.29371L60.2705 1.26355L62.2741 7.27886L68.9743 8.68278L62.7357 10.6396Z" fill="#FBBD06"/>
<defs>
<linearGradient id="paint0_linear_41_5153" x1="34.2062" y1="12.4644" x2="28.3635" y2="49.018" gradientUnits="userSpaceOnUse">
<stop stop-color="#494DDD"/>
<stop offset="1" stop-color="#1B1FA4"/>
</linearGradient>
<linearGradient id="paint1_linear_41_5153" x1="17.8429" y1="24.2749" x2="14.6179" y2="44.451" gradientUnits="userSpaceOnUse">
<stop stop-color="#C4FF90"/>
<stop offset="1" stop-color="#4460FC"/>
</linearGradient>
<linearGradient id="paint2_linear_41_5153" x1="42.1623" y1="18.6651" x2="40.0993" y2="31.5719" gradientUnits="userSpaceOnUse">
<stop stop-color="#C4FF90"/>
<stop offset="1" stop-color="#4460FC"/>
</linearGradient>
<linearGradient id="paint3_linear_41_5153" x1="27.0366" y1="34.2749" x2="27.0366" y2="37.889" gradientUnits="userSpaceOnUse">
<stop stop-color="#05071B"/>
<stop offset="1" stop-color="#191C88"/>
</linearGradient>
<linearGradient id="paint4_linear_41_5153" x1="7.48954" y1="27.1541" x2="7.48954" y2="31.8187" gradientUnits="userSpaceOnUse">
<stop stop-color="#05071B"/>
<stop offset="1" stop-color="#191C88"/>
</linearGradient>
<linearGradient id="paint5_linear_41_5153" x1="27.4717" y1="40.7419" x2="27.4717" y2="43.1513" gradientUnits="userSpaceOnUse">
<stop stop-color="#05071B"/>
<stop offset="1" stop-color="#191C88"/>
</linearGradient>
<linearGradient id="paint6_linear_41_5153" x1="32.081" y1="36.1652" x2="32.081" y2="38.7808" gradientUnits="userSpaceOnUse">
<stop stop-color="#05071B"/>
<stop offset="1" stop-color="#191C88"/>
</linearGradient>
</defs>
</svg>
