<svg preserveAspectRatio="none" width="100%" height="100%" overflow="visible" style="display: block;" viewBox="0 0 57 27.7227" fill="none" xmlns="http://www.w3.org/2000/svg">
<g id="Union">
<mask id="path-1-outside-1_0_8" maskUnits="userSpaceOnUse" x="0" y="0" width="57" height="28" fill="black">
<rect fill="white" width="57" height="28"/>
<path d="M43.1387 3C49.1372 3 54 7.86278 54 13.8613C54 19.8599 49.1372 24.7227 43.1387 24.7227H36.9995C34.3915 24.7227 32.2773 22.6085 32.2773 20.0005V19.0557C32.2773 16.9695 30.5862 15.2783 28.5 15.2783C26.4138 15.2783 24.7227 16.9695 24.7227 19.0557V20.0005C24.7227 22.6085 22.6085 24.7227 20.0005 24.7227H13.8613C7.86278 24.7227 3 19.8599 3 13.8613C3 7.86278 7.86278 3 13.8613 3H43.1387Z"/>
</mask>
<path d="M43.1387 3C49.1372 3 54 7.86278 54 13.8613C54 19.8599 49.1372 24.7227 43.1387 24.7227H36.9995C34.3915 24.7227 32.2773 22.6085 32.2773 20.0005V19.0557C32.2773 16.9695 30.5862 15.2783 28.5 15.2783C26.4138 15.2783 24.7227 16.9695 24.7227 19.0557V20.0005C24.7227 22.6085 22.6085 24.7227 20.0005 24.7227H13.8613C7.86278 24.7227 3 19.8599 3 13.8613C3 7.86278 7.86278 3 13.8613 3H43.1387Z" fill="var(--fill-0, #44D0F8)"/>
<path d="M43.1387 24.7227V21.7227H36.9995V24.7227V27.7227H43.1387V24.7227ZM32.2773 20.0005H35.2773V19.0557H32.2773H29.2773V20.0005H32.2773ZM24.7227 19.0557H21.7227V20.0005H24.7227H27.7227V19.0557H24.7227ZM20.0005 24.7227V21.7227H13.8613V24.7227V27.7227H20.0005V24.7227ZM13.8613 3V6H43.1387V3V0H13.8613V3ZM3 13.8613H6C6 9.51964 9.51964 6 13.8613 6V3V0C6.20593 0 0 6.20593 0 13.8613H3ZM13.8613 24.7227V21.7227C9.51964 21.7227 6 18.203 6 13.8613H3H0C0 21.5167 6.20593 27.7227 13.8613 27.7227V24.7227ZM24.7227 20.0005H21.7227C21.7227 20.9516 20.9516 21.7227 20.0005 21.7227V24.7227V27.7227C24.2653 27.7227 27.7227 24.2653 27.7227 20.0005H24.7227ZM28.5 15.2783V12.2783C24.757 12.2783 21.7227 15.3126 21.7227 19.0557H24.7227H27.7227C27.7227 18.6263 28.0707 18.2783 28.5 18.2783V15.2783ZM32.2773 19.0557H35.2773C35.2773 15.3126 32.243 12.2783 28.5 12.2783V15.2783V18.2783C28.9293 18.2783 29.2773 18.6263 29.2773 19.0557H32.2773ZM36.9995 24.7227V21.7227C36.0484 21.7227 35.2773 20.9516 35.2773 20.0005H32.2773H29.2773C29.2773 24.2653 32.7347 27.7227 36.9995 27.7227V24.7227ZM54 13.8613H51C51 18.203 47.4804 21.7227 43.1387 21.7227V24.7227V27.7227C50.7941 27.7227 57 21.5167 57 13.8613H54ZM54 13.8613H57C57 6.20593 50.7941 0 43.1387 0V3V6C47.4804 6 51 9.51964 51 13.8613H54Z" fill="var(--stroke-0, #1C4BD9)" mask="url(#path-1-outside-1_0_8)"/>
</g>
</svg>
